<svg width="16" height="16" viewBox="0 0 24 24" xmlns="http://www.w3.org/2000/svg">
  <rect width="24" height="24" rx="4.5" fill="#fff"/>
  <g fill="url(#ts-grad)">
    <path d="M6.8 8.6a.6.6 0 01.08-.84.6.6 0 01.85.04l2.1 2.45a.6.6 0 01-.01.8l-2.1 2.35a.6.6 0 01-.84.02.6.6 0 01-.02-.85l1.6-1.82-1.66-2.15z"/>
    <path d="M17.2 8.6a.6.6 0 00-.08-.84.6.6 0 00-.85.04l-2.1 2.45a.6.6 0 00.01.8l2.1 2.35a.6.6 0 00.84.02.6.6 0 00.02-.85l-1.6-1.82 1.66-2.15z"/>
    <path d="M10.8 5.8l1.2-.7 1.2.7V5a.55.55 0 00-.82-.48L11.2 5.2a.55.55 0 00-.4.5v.1z"/>
    <path d="M10.8 5.9v1.6l1.2.7 1.2-.7V5.9l-1.2.7-1.2-.7z"/>
    <path d="M13.2 18.2l-1.2.7-1.2-.7V19a.55.55 0 00.82.48l1.18-.72a.55.55 0 00.4-.5v-.06z"/>
    <path d="M13.2 18.1v-1.6l-1.2-.7-1.2.7v1.6l1.2-.7 1.2.7z"/>
    <circle cx="9.2" cy="12" r="0.65"/>
    <circle cx="14.8" cy="12" r="0.65"/>
  </g>
  <defs>
    <linearGradient id="ts-grad" x1="12" y1="3" x2="12" y2="21" gradientUnits="userSpaceOnUse">
      <stop stop-color="#B8AEFF"/>
      <stop offset="0.5" stop-color="#6B8FFF"/>
      <stop offset="1" stop-color="#2D38EE"/>
    </linearGradient>
  </defs>
</svg>